<?xml version="1.0" encoding="UTF-8"?>
<svg version="1.1" xmlns="http://www.w3.org/2000/svg" width="1600" height="1600">
<path d="M0 0 C2.80723836 1.66188511 5.62787647 3.2991541 8.45117188 4.93359375 C19.11541026 11.13341754 29.55293942 17.55457495 39.68554688 24.58984375 C40.34828613 25.04681641 41.01102539 25.50378906 41.69384766 25.97460938 C66.05734574 42.8052942 89.03199287 61.39707036 110.68554688 81.58984375 C111.33378418 82.19296387 111.98202148 82.79608398 112.64990234 83.41748047 C114.76800875 85.38940839 116.88357779 87.36401639 118.99804688 89.33984375 C119.65595215 89.95384033 120.31385742 90.56783691 120.99169922 91.20043945 C127.12914863 96.95400746 133.05641046 102.78942846 138.54492188 109.16796875 C140.77006969 111.68547175 143.05507192 114.13624725 145.35498047 116.58520508 C151.41961401 123.046566 157.14772933 129.66757182 162.68554688 136.58984375 C163.67848908 137.79319514 164.67341197 138.9949139 165.66992188 140.1953125 C193.8482784 174.24041569 216.91637009 212.15576446 236.68554688 251.58984375 C237.14944824 252.51361816 237.61334961 253.43739258 238.09130859 254.38916016 C259.25402235 296.8487787 273.7707773 342.28181971 283.68554688 388.58984375 C293.23451164 389.65461407 302.7771869 389.90614146 312.37304688 390.15234375 C313.9609462 390.19564567 315.54883695 390.23926318 317.13671875 390.28320312 C320.98623908 390.38905064 324.83584977 390.49064284 328.68554688 390.58984375 C357.7243251 482.10148789 366.34051077 583.45780868 362.68554688 853.58984375 C372.42161142 854.81727906 382.10209879 855.8392251 391.90429688 856.34375 C394.68554688 856.58984375 394.68554688 856.58984375 395.68554688 857.58984375 C395.98382242 862.83045467 395.93162058 868.09124878 395.93554688 873.33984375 C395.93655899 874.5421463 395.93655899 874.5421463 395.93759155 875.76873779 C395.81671567 967.09441918 370.02387429 1058.70985434 297.08886719 1181.71191406 C295.82697638 1183.40058213 294.57954502 1185.10003232 293.33398438 1186.80078125 C284.61634696 1198.62506764 275.37086618 1210.03182318 265.31835938 1220.74609375 C263.36721652 1222.85355962 261.49161335 1224.97930345 259.62695312 1227.16015625 C255.02362919 1232.44286386 250.07581169 1237.38563216 245.12329102 1242.33740234 C243.48554068 1243.97736685 241.85599551 1245.62521367 240.2265625 1247.2734375 C239.17822334 1248.32470658 238.12941217 1249.37550522 237.08007812 1250.42578125 C236.59771194 1250.91533295 236.11534576 1251.40488464 235.61836243 1251.90927124 C233.14881683 1254.36221316 230.92643629 1256.26988674 227.68554688 1257.58984375 C227.22108154 1257.22971191 226.75661621 1256.86958008 226.27807617 1256.49853516 C205.02393251 1240.1009389 182.63456089 1225.49237762 159.68554688 1211.58984375 C158.44715303 1210.83351767 157.20886272 1210.07702201 155.97070312 1209.3203125 C126.16058471 1191.1888151 95.5472753 1174.42996434 64.47761536 1158.5723877 C60.27507479 1156.421437 56.09812043 1154.22533492 51.9276123 1152.01298523 C41.0749945 1146.26037221 30.10283481 1140.78067853 19.06054688 1135.40234375 C18.13444611 1134.95029572 17.20834534 1134.49824768 16.25418091 1134.03250122 C0.67440022 1126.43447353 -15.0218318 1119.13775971 -30.84181213 1112.05587769 C-35.82042615 1109.82332296 -40.76422659 1107.52151322 -45.70385742 1105.2043457 C-63.29407194 1096.96927931 -81.17636842 1089.41063337 -99.05322266 1081.82421875 C-102.38152747 1080.41174641 -105.70824488 1078.99569325 -109.03271484 1077.57421875 C-151.05510215 1059.60655506 -193.55552324 1042.72346376 -236.31445312 1026.58984375 C-237.15308899 1026.27333862 -237.99172485 1025.9568335 -238.85577393 1025.6307373 C-266.2321359 1015.30765158 -293.72635657 1005.33184071 -321.31445312 995.58984375 C-322.13864746 995.29849548 -322.9628418 995.00714722 -323.81201172 994.70697021 C-391.18065617 970.89466359 -459.03914563 948.65040222 -527.31445312 927.58984375 C-528.98661896 927.07318146 -528.98661896 927.07318146 -530.69256592 926.54608154 C-589.25746847 908.45666958 -648.25318497 891.68868013 -707.37695312 875.52734375 C-708.48838432 875.22352028 -708.48838432 875.22352028 -709.62226868 874.91355896 C-722.72250495 871.33420642 -735.82803436 867.77518222 -748.95458984 864.29345703 C-749.65648532 864.10711102 -750.35838079 863.92076502 -751.08154583 863.72877216 C-754.43675144 862.83826104 -757.79257012 861.95020986 -761.14967346 861.06687927 C-762.32609909 860.75549515 -763.50252472 860.44411102 -764.71459961 860.12329102 C-765.75132309 859.8502565 -766.78804657 859.57722198 -767.85618591 859.2959137 C-770.31445312 858.58984375 -770.31445312 858.58984375 -772.31445312 857.58984375 C-773.06576538 855.92803955 -773.06576538 855.92803955 -773.78466797 853.72753906 C-774.06111145 852.89556503 -774.33755493 852.063591 -774.62237549 851.20640564 C-774.92037048 850.28622147 -775.21836548 849.36603729 -775.52539062 848.41796875 C-776.18924366 846.41760104 -776.85348814 844.41736321 -777.51806641 842.41723633 C-777.87064514 841.34792877 -778.22322388 840.27862122 -778.58648682 839.1769104 C-785.11549222 819.42315543 -792.04782475 799.84935757 -799.43945312 780.40234375 C-799.86170166 779.29104095 -800.2839502 778.17973816 -800.71899414 777.03475952 C-803.56816798 769.54696345 -806.43650825 762.06662331 -809.31445312 754.58984375 C-809.67128174 753.66260498 -810.02811035 752.73536621 -810.39575195 751.7800293 C-812.04164576 747.5044223 -813.68914133 743.22943476 -815.33764648 738.95483398 C-870.86561675 594.96264168 -870.86561675 594.96264168 -872.31445312 519.58984375 C-872.33491699 518.72133789 -872.35538086 517.85283203 -872.37646484 516.95800781 C-874.25836504 424.85376858 -852.63549054 334.64741855 -813.31445312 251.58984375 C-812.90759277 250.72939453 -812.50073242 249.86894531 -812.08154297 248.98242188 C-804.37587726 232.82039523 -795.39540303 217.38921768 -785.97460938 202.171875 C-785.4608374 201.34123535 -784.94706543 200.5105957 -784.41772461 199.65478516 C-783.45695309 198.10961702 -782.48937294 196.56865438 -781.51391602 195.03271484 C-778.97541488 191.11687606 -778.97541488 191.11687606 -778.31445312 186.58984375 C-779.7220066 185.19970867 -779.7220066 185.19970867 -781.64648438 183.98828125 C-782.35708008 183.50294922 -783.06767578 183.01761719 -783.79980469 182.51757812 C-784.95174316 181.74897461 -784.95174316 181.74897461 -786.12695312 180.96484375 C-787.70320661 179.88186182 -789.27742731 178.79591531 -790.84960938 177.70703125 C-791.61934082 177.17432617 -792.38907227 176.64162109 -793.18212891 176.09277344 C-797.78241195 172.85034816 -802.0711641 169.28100891 -806.31445312 165.58984375 C-807.07918945 164.93363037 -807.07918945 164.93363037 -807.859375 164.26416016 C-820.53134878 153.32260297 -833.23611925 139.8779561 -838.31445312 123.58984375 C-829.34901049 116.59844353 -819.70820634 110.90765535 -809.93310547 105.14111328 C-807.44420495 103.66670774 -804.96524007 102.17727655 -802.49023438 100.6796875 C-782.23878461 88.42620533 -761.72986777 76.66963089 -740.8581543 65.50512695 C-738.09751961 64.02033192 -735.3520504 62.50929315 -732.60864258 60.99291992 C-718.24467598 53.06923414 -703.68295987 45.59479961 -689.00195312 38.27734375 C-687.82157471 37.68789978 -686.64119629 37.09845581 -685.42504883 36.4911499 C-667.7610411 27.67511752 -650.02394355 19.09183276 -631.93701172 11.17675781 C-629.50706279 10.11228362 -627.0800326 9.04320178 -624.65673828 7.96386719 C-550.88802369 -24.89008427 -473.67754445 -51.11869153 0 0 Z " fill="#FD6C00" transform="translate(1038.314453125,209.41015625)"/>
<path d="M0 0 C5.91007249 1.86267072 11.55951365 4.00985892 17.1875 6.59765625 C17.95041351 6.94367889 18.71332703 7.28970154 19.49935913 7.64620972 C21.14239211 8.39169486 22.78457143 9.13906383 24.42596436 9.88815308 C28.89656854 11.92776752 33.37410009 13.95205805 37.8515625 15.9765625 C38.77667633 16.39512009 39.70179016 16.81367767 40.65493774 17.24491882 C49.35575474 21.17466029 58.09565627 25.01236452 66.84494019 28.83270264 C85.9929323 37.19402717 105.04560547 45.75469316 124.06764221 54.39825439 C130.29168913 57.22619055 136.51965487 60.04534367 142.75 62.859375 C160.6453017 70.94288034 178.5282801 79.05192028 196.3815918 87.2277832 C205.32029906 91.32087729 214.26768103 95.39427666 223.22125244 99.45474243 C251.37123908 112.22382163 279.41363175 125.22676693 307.41259766 138.32324219 C311.04862376 140.02272682 314.68611408 141.71903406 318.32421875 143.4140625 C337.23893058 152.22773303 356.12858499 161.09400315 375 170 C375.7757135 170.36605347 376.551427 170.73210693 377.35064697 171.10925293 C396.76203485 180.27090851 416.14577588 189.48500332 435.46484375 198.83984375 C441.46740034 201.74589213 447.4812515 204.62766657 453.5 207.5 C466.38669466 213.65342213 479.24574484 219.8638221 492.10131836 226.08190918 C493.96379842 226.98249504 495.82657416 227.88246617 497.68945312 228.78222656 C506.65685185 233.11397951 515.61659486 237.46133759 524.57159424 241.81866455 C527.05504244 243.02677625 529.53899906 244.2338387 532.02294922 245.44091797 C561.79028239 259.91487228 591.42208195 274.65765276 621.0303154 289.45368958 C623.97578037 290.9253986 626.92158606 292.39642367 629.86746216 293.86730957 C634.5838635 296.22253534 639.29906761 298.58014245 644.01339912 300.93950844 C645.75749619 301.81206888 647.50190095 302.68401464 649.24665642 303.5552578 C659.08386264 308.46858248 668.86989907 313.46409789 678.58500671 318.61527157 C685.3337574 322.19342063 692.15262875 325.61406918 699 329 C707.50383629 333.22496861 715.97107021 337.50500913 724.35424805 341.96533203 C729.45777188 344.67540801 734.58456456 347.33654925 739.7265625 349.97265625 C740.41928757 350.32784332 741.11201263 350.6830304 741.82572937 351.04898071 C743.25986422 351.78424683 744.69400225 352.51950675 746.12814331 353.25476074 C757.05536444 358.85874572 767.92650981 364.53037148 778.67504883 370.47216797 C786.54033637 374.7989209 794.51338532 378.90342627 802.5 383 C812.33118091 388.04471248 822.10740745 393.16309697 831.78735352 398.49438477 C838.53750859 402.21194307 845.32730478 405.85153012 852.12887573 409.47387695 C862.30595463 414.89615727 872.40160969 420.44089247 882.41772461 426.15600586 C889.55362323 430.21549795 896.76072493 434.12827628 904 438 C914.15719546 443.43591804 924.21452224 449.02450205 934.2265625 454.72265625 C939.22950422 457.56962941 944.25319066 460.37795529 949.28198242 463.17895508 C961.52456983 470.00165195 973.6605419 476.99035357 985.74414062 484.09033203 C989.28918691 486.16961758 992.83952032 488.23968085 996.390625 490.30859375 C1002.54961648 493.8982452 1008.69764853 497.50607081 1014.83544922 501.13183594 C1016.76998926 502.27387424 1018.70612551 503.41322095 1020.64501953 504.54785156 C1030.13762856 510.11955705 1038.25480988 516.15948446 1046 524 C1046.65226562 524.64195312 1047.30453125 525.28390625 1047.9765625 525.9453125 C1070.73508733 549.95087978 1071.1873776 582.4243797 1071.18530273 613.45605469 C1071.18748253 617.09582336 1071.20567302 620.73528494 1071.22460938 624.375 C1071.25778896 638.05017166 1070.72918661 651.43351239 1069 665 C1068.86360107 666.14146484 1068.72720215 667.28292969 1068.58666992 668.45898438 C1068.24869538 671.2058405 1067.88226845 673.94650916 1067.5 676.6875 C1067.38269531 677.57115234 1067.26539063 678.45480469 1067.14453125 679.36523438 C1066.37218798 684.99171358 1065.29958903 690.47114494 1064 696 C1064.7226001 696.26917236 1065.4452002 696.53834473 1066.18969727 696.81567383 C1068.97860096 697.99098195 1071.39762258 699.35102068 1073.96484375 700.94921875 C1074.9185083 701.54226807 1075.87217285 702.13531738 1076.85473633 702.74633789 C1077.87204834 703.38692139 1078.88936035 704.02750488 1079.9375 704.6875 C1080.99928467 705.35450928 1082.06106934 706.02151855 1083.1550293 706.70874023 C1104.16805818 719.99448774 1124.83303494 734.13428599 1144 750 C1142.49508808 753.45105456 1140.48416021 755.86724097 1137.9375 758.625 C1137.22464844 759.40101563 1136.51179688 760.17703125 1135.77734375 760.9765625 C1135.358479 761.4293457 1134.93961426 761.88212891 1134.50805664 762.34863281 C1133.36144614 763.60420565 1132.22743926 764.87130165 1131.09936523 766.14355469 C1125.49474811 772.45261171 1119.67974099 778.50652348 1113.71411133 784.47119141 C1112.16653444 786.02099573 1110.62719308 787.57870064 1109.08789062 789.13671875 C1108.09423801 790.13329931 1107.10011499 791.12941113 1106.10546875 792.125 C1105.22012451 793.01445313 1104.33478027 793.90390625 1103.42260742 794.8203125 C1101.30620561 796.72449827 1099.6074347 797.92142716 1097 799 C1096.53553467 798.63986816 1096.07106934 798.27973633 1095.5925293 797.90869141 C1074.33838564 781.51109515 1051.94901401 766.90253387 1029 753 C1027.76160615 752.24367392 1026.52331584 751.48717826 1025.28515625 750.73046875 C995.47503783 732.59897135 964.86172843 715.84012059 933.79206848 699.98254395 C929.58952792 697.83159325 925.41257355 695.63549117 921.24206543 693.42314148 C910.38944763 687.67052846 899.41728793 682.19083478 888.375 676.8125 C887.44889923 676.36045197 886.52279846 675.90840393 885.56863403 675.44265747 C869.98885334 667.84462978 854.29262133 660.54791596 838.47264099 653.46603394 C833.49402698 651.23347921 828.55022654 648.93166947 823.6105957 646.61450195 C806.02038118 638.37943556 788.13808471 630.82078962 770.26123047 623.234375 C766.93292566 621.82190266 763.60620825 620.4058495 760.28173828 618.984375 C718.25935097 601.01671131 675.75892988 584.13362001 633 568 C632.16136414 567.68349487 631.32272827 567.36698975 630.4586792 567.04089355 C603.08231722 556.71780783 575.58809655 546.74199696 548 537 C547.17580566 536.70865173 546.35161133 536.41730347 545.50244141 536.11712646 C478.13379695 512.30481984 410.2753075 490.06055847 342 469 C340.32783417 468.48333771 340.32783417 468.48333771 338.62188721 467.95623779 C280.05698465 449.86682583 221.06126816 433.09883638 161.9375 416.9375 C160.8260688 416.63367653 160.8260688 416.63367653 159.69218445 416.32371521 C146.59194818 412.74436267 133.48641876 409.18533847 120.35986328 405.70361328 C119.65796781 405.51726727 118.95607233 405.33092127 118.2329073 405.13892841 C114.87770168 404.24841729 111.52188301 403.36036611 108.16477966 402.47703552 C106.98835403 402.1656514 105.81192841 401.85426727 104.59985352 401.53344727 C103.56313004 401.26041275 102.52640656 400.98737823 101.45826721 400.70606995 C99 400 99 400 97 399 C96.24868774 397.3381958 96.24868774 397.3381958 95.52978516 395.13769531 C95.25334167 394.30572128 94.97689819 393.47374725 94.69207764 392.61656189 C94.39408264 391.69637772 94.09608765 390.77619354 93.7890625 389.828125 C93.12520946 387.82775729 92.46096499 385.82751946 91.79638672 383.82739258 C91.44380798 382.75808502 91.09122925 381.68877747 90.72796631 380.58706665 C84.1989609 360.83331168 77.26662837 341.25951382 69.875 321.8125 C69.45275146 320.7011972 69.03050293 319.58989441 68.59545898 318.44491577 C65.74628514 310.9571197 62.87794487 303.47677956 60 296 C59.64317139 295.07276123 59.28634277 294.14552246 58.91870117 293.19018555 C57.27280736 288.91457855 55.62531179 284.63959101 53.97680664 280.36499023 C22.39506749 198.46889652 -5.27809137 117.54941087 0 0 Z " fill="#37474E" transform="translate(169,668)"/>
<path d="M0 0 C6.72969965 1.9677118 13.3789104 4.10432431 20.00390625 6.3984375 C21.89905474 7.04957755 23.79423817 7.70061593 25.68945312 8.3515625 C28.61614217 9.35923512 31.54242214 10.36806275 34.46801758 11.37890625 C45.84943169 15.3078486 57.23023369 19.0993346 68.8168335 22.37817383 C71.13807099 23.03932644 73.45414698 23.71678892 75.77001953 24.39648438 C90.07126992 28.57207496 104.48308899 32.27023967 118.9375 35.875 C120.77175537 36.33338257 120.77175537 36.33338257 122.64306641 36.80102539 C143.0032604 41.87716122 163.39942617 46.56493526 183.98999023 50.60333252 C185.9144778 50.98312253 187.83717173 51.37196763 189.75976562 51.76123047 C209.07958616 55.67144159 228.52502692 58.72444222 248 61.75 C249.26565796 61.94681366 250.53131592 62.14362732 251.83532715 62.34640503 C265.20224932 64.41837991 278.55894314 66.46789215 292 68 C292.85432617 68.09923767 293.70865234 68.19847534 294.58886719 68.30072021 C370.27377688 77.08325281 445.86946074 81.00869903 522 83 C522.63468748 85.04055958 523.26754607 87.08168805 523.8996582 89.12304688 C524.25228226 90.25963745 524.60490631 91.39622803 524.96821594 92.56726074 C552.58324544 184.44229521 560.58103545 285.87282316 555 549 C548.46951787 548.27542304 542.26845273 546.59832257 535.9375 544.875 C534.79152344 544.5651416 533.64554688 544.2552832 532.46484375 543.93603516 C524.16607864 541.6628253 515.96477924 539.15564736 507.78466797 536.49023438 C502.07877007 534.6367328 496.35389878 532.94009142 490.5625 531.375 C483.78176245 529.54077429 477.14116141 527.4428689 470.4921875 525.1796875 C463.60896053 522.85448108 456.64935011 520.77442017 449.67822266 518.72998047 C437.52571491 515.15149598 425.53341018 511.20390308 413.5625 507.0625 C410.84916939 506.12866756 408.13535687 505.19624613 405.42147827 504.26400757 C403.66110454 503.65929258 401.90086798 503.05417809 400.14077759 502.44863892 C393.77347415 500.25950956 387.39355716 498.11130873 381 496 C361.89204394 489.67185255 343.02255821 482.67931095 324.19921875 475.5546875 C320.60146837 474.20818534 316.98302737 472.92280686 313.36328125 471.63671875 C306.37873512 469.14776473 299.43221235 466.56838522 292.5 463.9375 C291.26967041 463.47069824 290.03934082 463.00389648 288.77172852 462.52294922 C247.58707501 446.844974 247.58707501 446.844974 229.9375 438.6875 C224.92304148 436.37925719 219.84459953 434.24800146 214.75 432.125 C207.96175681 429.28570573 201.25393634 426.3302985 194.60766602 423.16943359 C191.13862431 421.52774161 187.65531398 419.91930189 184.16650391 418.32006836 C167.02627678 410.44920247 150.10568004 402.19509612 133.25457764 393.72509766 C130.6421576 392.41342782 128.02746139 391.1063305 125.41277122 389.79919338 C107.84082487 381.01291204 90.33681013 372.14390561 73.25 362.4375 C72.27337402 361.88449219 71.29674805 361.33148437 70.29052734 360.76171875 C64.08034565 357.22896213 57.94882652 353.60732517 51.9140625 349.78125 C49.54848751 348.3352685 47.17249346 346.98308703 44.7421875 345.65234375 C39.87655924 342.96671073 35.18190647 340.05490708 30.5 337.0625 C29.57928711 336.47476807 28.65857422 335.88703613 27.70996094 335.28149414 C7.13073313 322.07275788 -13.44393043 308.69371514 -33 294 C-34.04849121 293.21520264 -34.04849121 293.21520264 -35.11816406 292.41455078 C-54.24144379 278.06133791 -72.78158128 262.91960315 -90.2734375 246.60888672 C-91.53442197 245.43384605 -92.79777236 244.26134288 -94.0625 243.09033203 C-96.31676438 241.00226012 -98.56523591 238.90810228 -100.8125 236.8125 C-101.87078003 235.83265137 -101.87078003 235.83265137 -102.95043945 234.83300781 C-106.99903427 231.039988 -110.75026163 227.11750538 -114.35864258 222.90405273 C-116.33906014 220.6066741 -118.39960918 218.39548255 -120.47485352 216.18408203 C-132.18650229 203.70025811 -142.08373438 189.91850617 -152 176 C-151.505 175.01 -151.505 175.01 -151 174 C-150.35675781 174.75023437 -149.71351563 175.50046875 -149.05078125 176.2734375 C-130.85364642 197.06869791 -104.75753031 212.07123792 -77 215 C-43.81155795 216.93124481 -12.28846908 210.705796 13.45410156 188.37890625 C35.37945971 168.8219854 50.8168235 142.56681247 54 113 C54.829232 97.21854291 54.0693937 82.2849504 50 67 C49.72285156 65.91074219 49.44570313 64.82148437 49.16015625 63.69921875 C41.93200121 39.08352026 23.24610056 15.67575881 1.65234375 2.12890625 C1.10707031 1.75636719 0.56179688 1.38382813 0 1 C0 0.67 0 0.34 0 0 Z " fill="#C5C9E7" transform="translate(845,517)"/>
<path d="M0 0 C29.03877822 91.51164414 37.6549639 192.86796493 33 466 C26.46951787 465.27542304 20.26845273 463.59832257 13.9375 461.875 C12.79152344 461.5651416 11.64554688 461.2552832 10.46484375 460.93603516 C2.16607864 458.6628253 -6.03522076 456.15564736 -14.21533203 453.49023438 C-19.92122993 451.6367328 -25.64610122 449.94009142 -31.4375 448.375 C-38.21823755 446.54077429 -44.85883859 444.4428689 -51.5078125 442.1796875 C-58.39103947 439.85448108 -65.35064989 437.77442017 -72.32177734 435.72998047 C-84.47428509 432.15149598 -96.46658982 428.20390308 -108.4375 424.0625 C-111.15083061 423.12866756 -113.86464313 422.19624613 -116.57852173 421.26400757 C-118.33889546 420.65929258 -120.09913202 420.05417809 -121.85922241 419.44863892 C-128.22652585 417.25950956 -134.60644284 415.11130873 -141 413 C-160.10795606 406.67185255 -178.97744179 399.67931095 -197.80078125 392.5546875 C-201.39853163 391.20818534 -205.01697263 389.92280686 -208.63671875 388.63671875 C-215.62126488 386.14776473 -222.56778765 383.56838522 -229.5 380.9375 C-231.34549438 380.23729736 -231.34549438 380.23729736 -233.22827148 379.52294922 C-274.41292499 363.844974 -274.41292499 363.844974 -292.0625 355.6875 C-297.07695522 353.37925871 -302.15537195 351.24792969 -307.25 349.125 C-320.43371215 343.61237596 -333.25688045 337.45991731 -346 331 C-344.40584497 327.08790692 -341.86106668 324.62781914 -338.875 321.6875 C-337.96492188 320.78386719 -337.05484375 319.88023437 -336.1171875 318.94921875 C-333.86438595 316.77682171 -331.53564785 314.71749321 -329.1640625 312.67578125 C-324.72624342 308.8249335 -320.61521208 304.6901704 -316.5 300.5 C-311.81672776 295.73142226 -307.08033648 291.15024034 -302.01367188 286.79101562 C-298.34510446 283.52809 -294.93887401 280.00151288 -291.5 276.5 C-286.8066805 271.72119198 -282.06008022 267.12844906 -276.98242188 262.75976562 C-273.49728173 259.66605994 -270.26192574 256.32563522 -267 253 C-263.11716293 249.04132627 -259.23659338 245.14941662 -255.03125 241.53125 C-250.62796818 237.73857952 -246.57013076 233.64426794 -242.5 229.5 C-237.81672776 224.73142226 -233.08033648 220.15024034 -228.01367188 215.79101562 C-224.34510446 212.52809 -220.93887401 209.00151288 -217.5 205.5 C-212.81672776 200.73142226 -208.08033648 196.15024034 -203.01367188 191.79101562 C-199.34510446 188.52809 -195.93887401 185.00151288 -192.5 181.5 C-187.81672776 176.73142226 -183.08033648 172.15024034 -178.01367188 167.79101562 C-174.34510446 164.52809 -170.93887401 161.00151288 -167.5 157.5 C-162.81672776 152.73142226 -158.08033648 148.15024034 -153.01367188 143.79101562 C-149.34510446 140.52809 -145.93887401 137.00151288 -142.5 133.5 C-137.81672776 128.73142226 -133.08033648 124.15024034 -128.01367188 119.79101562 C-124.34510446 116.52809 -120.93887401 113.00151288 -117.5 109.5 C-112.81672776 104.73142226 -108.08033648 100.15024034 -103.01367188 95.79101562 C-99.34510446 92.52809 -95.93887401 89.00151288 -92.5 85.5 C-87.81672776 80.73142226 -83.08033648 76.15024034 -78.01367188 71.79101562 C-74.34510446 68.52809 -70.93887401 65.00151288 -67.5 61.5 C-62.81672776 56.73142226 -58.08033648 52.15024034 -53.01367188 47.79101562 C-49.34510446 44.52809 -45.93887401 41.00151288 -42.5 37.5 C-38.44277195 33.3688698 -34.3997605 29.28547179 -30.0078125 25.5078125 C-25.56630365 21.68676037 -21.47879904 17.55260838 -17.375 13.375 C-4.23382867 0 -4.23382867 0 0 0 Z " fill="#E6E8F4" transform="translate(1367,600)"/>
<path d="M0 0 C6.72969965 1.9677118 13.3789104 4.10432431 20.00390625 6.3984375 C21.89905474 7.04957755 23.79423817 7.70061593 25.68945312 8.3515625 C28.61614217 9.35923512 31.54242214 10.36806275 34.46801758 11.37890625 C45.84943169 15.3078486 57.23023369 19.0993346 68.8168335 22.37817383 C71.13807099 23.03932644 73.45414698 23.71678892 75.77001953 24.39648438 C90.07126992 28.57207496 104.48308899 32.27023967 118.9375 35.875 C120.77175537 36.33338257 120.77175537 36.33338257 122.64306641 36.80102539 C143.0032604 41.87716122 163.39942617 46.56493526 183.98999023 50.60333252 C185.9144778 50.98312253 187.83717173 51.37196763 189.75976562 51.76123047 C209.07958616 55.67144159 228.52502692 58.72444222 248 61.75 C249.26565796 61.94681366 250.53131592 62.14362732 251.83532715 62.34640503 C265.20199986 64.41834124 278.55987592 66.4630515 292 68 C292.95648437 68.11085938 293.91296875 68.22171875 294.8984375 68.3359375 C297.26492692 68.60598734 299.63206506 68.86798215 302 69.125 C303.17949219 69.25455078 303.17949219 69.25455078 304.3828125 69.38671875 C306.25509154 69.59221279 308.1275269 69.79628186 310 70 C308.98873047 71.00933594 308.98873047 71.00933594 307.95703125 72.0390625 C305.80164031 74.1936953 303.6553495 76.35710743 301.51171875 78.5234375 C300.2370262 79.80733836 298.96228566 81.09119159 297.6875 82.375 C297.06166016 83.00921875 296.43582031 83.6434375 295.79101562 84.296875 C292.6364486 87.46761929 289.44163662 90.52742515 286.05078125 93.4453125 C281.64325251 97.24799136 277.57698969 101.3487482 273.5 105.5 C268.81672776 110.26857774 264.08033648 114.84975966 259.01367188 119.20898438 C255.34510446 122.47191 251.93887401 125.99848712 248.5 129.5 C243.81672776 134.26857774 239.08033648 138.84975966 234.01367188 143.20898438 C230.34510446 146.47191 226.93887401 149.99848712 223.5 153.5 C218.81672776 158.26857774 214.08033648 162.84975966 209.01367188 167.20898438 C205.34510446 170.47191 201.93887401 173.99848712 198.5 177.5 C193.81672776 182.26857774 189.08033648 186.84975966 184.01367188 191.20898438 C180.34510446 194.47191 176.93887401 197.99848712 173.5 201.5 C168.81672776 206.26857774 164.08033648 210.84975966 159.01367188 215.20898438 C155.34510446 218.47191 151.93887401 221.99848712 148.5 225.5 C143.81672776 230.26857774 139.08033648 234.84975966 134.01367188 239.20898438 C130.34510446 242.47191 126.93887401 245.99848712 123.5 249.5 C119.45051536 253.62324574 115.41641052 257.700117 111.03125 261.46875 C106.44821339 265.41187392 102.23659911 269.69110398 98 274 C93.14353654 278.93933826 88.24978224 283.71151141 82.99609375 288.2265625 C79.33204512 291.48190121 75.93294957 295.00451948 72.5 298.5 C68.44059741 302.63334435 64.39565899 306.7179665 60 310.49609375 C54.81767261 314.95355774 50.11360684 319.87034213 45.35546875 324.77148438 C40.86368026 329.33307214 36.24639338 333.32734811 31 337 C-12.29128904 311.51769362 -53.53259153 280.86880245 -90.2734375 246.60888672 C-91.53442197 245.43384605 -92.79777236 244.26134288 -94.0625 243.09033203 C-96.31676438 241.00226012 -98.56523591 238.90810228 -100.8125 236.8125 C-101.87078003 235.83265137 -101.87078003 235.83265137 -102.95043945 234.83300781 C-106.99903427 231.039988 -110.75026163 227.11750538 -114.35864258 222.90405273 C-116.33906014 220.6066741 -118.39960918 218.39548255 -120.47485352 216.18408203 C-132.18650229 203.70025811 -142.08373438 189.91850617 -152 176 C-151.505 175.01 -151.505 175.01 -151 174 C-150.35675781 174.75023437 -149.71351563 175.50046875 -149.05078125 176.2734375 C-130.85364642 197.06869791 -104.75753031 212.07123792 -77 215 C-43.81155795 216.93124481 -12.28846908 210.705796 13.45410156 188.37890625 C35.37945971 168.8219854 50.8168235 142.56681247 54 113 C54.829232 97.21854291 54.0693937 82.2849504 50 67 C49.72285156 65.91074219 49.44570313 64.82148437 49.16015625 63.69921875 C41.93200121 39.08352026 23.24610056 15.67575881 1.65234375 2.12890625 C1.10707031 1.75636719 0.56179688 1.38382813 0 1 C0 0.67 0 0.34 0 0 Z " fill="#C4C8E7" transform="translate(845,517)"/>
<path d="M0 0 C0.62986816 0.16628906 1.25973633 0.33257812 1.90869141 0.50390625 C22.78673429 6.04811238 40.65834234 16.84433404 56 32 C56.85464844 32.83015625 57.70929688 33.6603125 58.58984375 34.515625 C70.37560007 46.6551402 79.38401854 62.54537552 84.125 78.75 C84.37636719 79.56726563 84.62773438 80.38453125 84.88671875 81.2265625 C88.09265339 92.00253128 89.36963736 102.52250855 89.3125 113.75 C89.30831055 114.88453613 89.30412109 116.01907227 89.29980469 117.18798828 C89.18014585 126.12803125 88.30908275 134.35343471 86 143 C85.73316406 144.00160156 85.46632813 145.00320313 85.19140625 146.03515625 C79.51621566 164.77589674 69.50302994 180.9057691 56 195 C55.31550781 195.74765625 54.63101563 196.4953125 53.92578125 197.265625 C39.5962355 212.41627227 19.32099749 223.41310818 -1 228 C-1.96164062 228.22171875 -2.92328125 228.4434375 -3.9140625 228.671875 C-35.47687181 234.46752733 -66.23724006 228.28774555 -93 211 C-96.48699818 208.49294282 -99.75974716 205.81644494 -103 203 C-103.81984375 202.31292969 -104.6396875 201.62585938 -105.484375 200.91796875 C-127.26796252 182.14484597 -140.66167735 155.46618003 -144 127 C-145.45893606 106.15272864 -144.04145382 86.03628867 -135 67 C-134.48179687 65.86175781 -133.96359375 64.72351563 -133.4296875 63.55078125 C-119.90646013 35.38305389 -96.02436024 13.92855462 -66.734375 2.87109375 C-45.39283403 -3.92771145 -21.77284112 -6.15697218 0 0 Z " fill="#37474F" transform="translate(811,503)"/>
<path d="M0 0 C2.98712189 24.60687751 5.47877532 49.21136455 7.25 73.9375 C7.33254028 75.07929718 7.41508057 76.22109436 7.50012207 77.39749146 C20.60531846 260.18404463 20.60531846 260.18404463 3 313 C-3.53048213 312.27542304 -9.73154727 310.59832257 -16.0625 308.875 C-17.20847656 308.5651416 -18.35445312 308.2552832 -19.53515625 307.93603516 C-27.83392136 305.6628253 -36.03522076 303.15564736 -44.21533203 300.49023438 C-49.92122993 298.6367328 -55.64610122 296.94009142 -61.4375 295.375 C-68.21823755 293.54077429 -74.85883859 291.4428689 -81.5078125 289.1796875 C-88.39103947 286.85448108 -95.35064989 284.77442017 -102.32177734 282.72998047 C-114.47428509 279.15149598 -126.46658982 275.20390308 -138.4375 271.0625 C-141.15083061 270.12866756 -143.86464313 269.19624613 -146.57852173 268.26400757 C-148.33889546 267.65929258 -150.09913202 267.05417809 -151.85922241 266.44863892 C-158.22652585 264.25950956 -164.60644284 262.11130873 -171 260 C-187.58264132 254.50818292 -203.99798635 248.54328886 -220.3359375 242.36328125 C-228.16967645 239.40045617 -236.02561607 236.56750998 -244 234 C-239.98250513 229.92093432 -235.82113865 226.01908198 -231.625 222.125 C-225.35095104 216.28083958 -219.22502321 210.31335932 -213.22509766 204.18798828 C-210.29656649 201.21635391 -207.32224345 198.37490905 -204.15625 195.65625 C-199.35758804 191.51405239 -194.94436711 187.01570526 -190.5 182.5 C-185.48072491 177.40015869 -180.43954375 172.44816517 -175.00976562 167.78710938 C-171.1669081 164.36999116 -167.60391313 160.66541335 -164 157 C-159.14353654 152.06066174 -154.24978224 147.28848859 -148.99609375 142.7734375 C-145.33204512 139.51809879 -141.93294957 135.99548052 -138.5 132.5 C-133.81672776 127.73142226 -129.08033648 123.15024034 -124.01367188 118.79101562 C-120.34510446 115.52809 -116.93887401 112.00151288 -113.5 108.5 C-108.81672776 103.73142226 -104.08033648 99.15024034 -99.01367188 94.79101562 C-95.34510446 91.52809 -91.93887401 88.00151288 -88.5 84.5 C-83.81672776 79.73142226 -79.08033648 75.15024034 -74.01367188 70.79101562 C-70.34510446 67.52809 -66.93887401 64.00151288 -63.5 60.5 C-58.81672776 55.73142226 -54.08033648 51.15024034 -49.01367188 46.79101562 C-45.34510446 43.52809 -41.93887401 40.00151288 -38.5 36.5 C-34.4565617 32.38291073 -30.42883419 28.3105312 -26.05078125 24.546875 C-21.36244796 20.51280825 -17.03541493 16.14474418 -12.6875 11.75 C-11.89021484 10.94820312 -11.09292969 10.14640625 -10.27148438 9.3203125 C-8.80180768 7.84198338 -7.3331686 6.36262135 -5.8659668 4.88183594 C-5.25019775 4.26083008 -4.63442871 3.63982422 -4 3 C-3.44417236 2.42282227 -2.88834473 1.84564453 -2.31567383 1.25097656 C-1 0 -1 0 0 0 Z " fill="#C5C8E7" transform="translate(1397,753)"/>
<path d="M0 0 C0.64309113 0.05513763 1.28618225 0.11027527 1.94876099 0.16708374 C6.57762816 0.56890288 11.19721856 1.04321552 15.81689453 1.53869629 C20.21765062 2.00972587 24.62038483 2.46116759 29.0234375 2.91015625 C30.37535187 3.04809097 30.37535187 3.04809097 31.75457764 3.18881226 C41.49262491 4.16998035 51.24350972 4.97707385 61 5.75 C61.81507019 5.81466461 62.63014038 5.87932922 63.46990967 5.94595337 C67.97953386 6.30263354 72.48954955 6.65390108 77 7 C75.48123262 10.18941149 73.91059243 12.33246836 71.375 14.8125 C70.74335937 15.43769531 70.11171875 16.06289063 69.4609375 16.70703125 C67.42832262 18.6009121 65.36242767 20.41859302 63.2578125 22.23046875 C58.79241271 26.1167896 54.64614385 30.2783344 50.5 34.5 C46.45051536 38.62324574 42.41641052 42.700117 38.03125 46.46875 C33.44821339 50.41187392 29.23659911 54.69110398 25 59 C20.14353654 63.93933826 15.24978224 68.71151141 9.99609375 73.2265625 C6.33204512 76.48190121 2.93294957 80.00451948 -0.5 83.5 C-5.18327224 88.26857774 -9.91966352 92.84975966 -14.98632812 97.20898438 C-18.65489554 100.47191 -22.06112599 103.99848712 -25.5 107.5 C-29.54948464 111.62324574 -33.58358948 115.700117 -37.96875 119.46875 C-42.55178661 123.41187392 -46.76340089 127.69110398 -51 132 C-55.85646346 136.93933826 -60.75021776 141.71151141 -66.00390625 146.2265625 C-69.66795488 149.48190121 -73.06705043 153.00451948 -76.5 156.5 C-80.54948464 160.62324574 -84.58358948 164.700117 -88.96875 168.46875 C-93.55178661 172.41187392 -97.76340089 176.69110398 -102 181 C-106.85646346 185.93933826 -111.75021776 190.71151141 -117.00390625 195.2265625 C-120.66795488 198.48190121 -124.06705043 202.00451948 -127.5 205.5 C-131.54948464 209.62324574 -135.58358948 213.700117 -139.96875 217.46875 C-144.55178661 221.41187392 -148.76340089 225.69110398 -153 230 C-157.84640404 234.92910718 -162.72997619 239.68972211 -167.97265625 244.1953125 C-171.81998057 247.62009831 -175.39014685 251.32854526 -179 255 C-183.85646346 259.93933826 -188.75021776 264.71151141 -194.00390625 269.2265625 C-197.66795488 272.48190121 -201.06705043 276.00451948 -204.5 279.5 C-209.27597231 284.36296635 -214.08915773 289.06702683 -219.29248047 293.47460938 C-221.24418149 295.15543465 -221.24418149 295.15543465 -223.625 298 C-226 300 -226 300 -228.79858398 299.80493164 C-232.13094656 298.96707612 -234.61554839 297.81592376 -237.59765625 296.12109375 C-238.64050781 295.53320068 -239.68335938 294.94530762 -240.7578125 294.33959961 C-242.39363281 293.3980603 -242.39363281 293.3980603 -244.0625 292.4375 C-245.18269531 291.80142822 -246.30289063 291.16535645 -247.45703125 290.51000977 C-254.19338385 286.66744933 -260.85380801 282.73162347 -267.41796875 278.6015625 C-270.52692632 276.67316219 -273.70968399 274.91292205 -276.921875 273.1640625 C-280.36084129 271.23772424 -283.68126106 269.12507807 -287 267 C-285.42653668 262.92806765 -282.5050851 260.50243198 -279.3125 257.6875 C-273.46840915 252.42624524 -267.88065972 246.95740329 -262.37817383 241.34057617 C-259.37398323 238.29418375 -256.32581811 235.37345598 -253.08203125 232.58203125 C-248.66397648 228.76990552 -244.58689895 224.66134155 -240.5 220.5 C-236.45051536 216.37675426 -232.41641052 212.299883 -228.03125 208.53125 C-223.44821339 204.58812608 -219.23659911 200.30889602 -215 196 C-210.14353654 191.06066174 -205.24978224 186.28848859 -199.99609375 181.7734375 C-196.33204512 178.51809879 -192.93294957 174.99548052 -189.5 171.5 C-184.81672776 166.73142226 -180.08033648 162.15024034 -175.01367188 157.79101562 C-171.34510446 154.52809 -167.93887401 151.00151288 -164.5 147.5 C-159.81672776 142.73142226 -155.08033648 138.15024034 -150.01367188 133.79101562 C-146.34510446 130.52809 -142.93887401 127.00151288 -139.5 123.5 C-134.81672776 118.73142226 -130.08033648 114.15024034 -125.01367188 109.79101562 C-121.34510446 106.52809 -117.93887401 103.00151288 -114.5 99.5 C-109.81672776 94.73142226 -105.08033648 90.15024034 -100.01367188 85.79101562 C-96.34510446 82.52809 -92.93887401 79.00151288 -89.5 75.5 C-84.81672776 70.73142226 -80.08033648 66.15024034 -75.01367188 61.79101562 C-71.34510446 58.52809 -67.93887401 55.00151288 -64.5 51.5 C-59.81672776 46.73142226 -55.08033648 42.15024034 -50.01367188 37.79101562 C-46.34510446 34.52809 -42.93887401 31.00151288 -39.5 27.5 C-35.38874131 23.31385499 -31.28927699 19.19121274 -26.83203125 15.37109375 C-24.3727746 13.26100201 -22.12311603 11.12225009 -19.98046875 8.69140625 C-19.28147461 7.91313477 -19.28147461 7.91313477 -18.56835938 7.11914062 C-17.63920112 6.07170197 -16.73039945 5.00588554 -15.84179688 3.92382812 C-11.14650684 -1.17078699 -6.56733152 -0.5994541 0 0 Z " fill="#E6E8F4" transform="translate(1164,588)"/>
<path d="M0 0 C4.99823559 2.76218283 7.5980553 8.12856321 10.6640625 12.79296875 C15.85073661 20.67752939 21.1722243 28.17184756 27.375 35.3125 C28.16648437 36.23804688 28.95796875 37.16359375 29.7734375 38.1171875 C35.46422593 44.59786455 41.54305133 50.06436385 48.375 55.3125 C49.34566406 56.075625 50.31632812 56.83875 51.31640625 57.625 C57.21508831 62.25567671 57.21508831 62.25567671 63.80078125 65.765625 C67.36794427 67.29141506 69.71449782 68.47340989 72.375 71.3125 C77.74633054 87.69483819 68.2339891 111.56729538 61.375 126.3125 C61.02840332 127.06321777 60.68180664 127.81393555 60.32470703 128.58740234 C49.91007667 150.86600629 36.72254365 170.69839391 19.8828125 188.59375 C18.10635179 190.51963264 16.42308007 192.43917918 14.765625 194.4609375 C11.61716324 198.21645561 8.13911894 201.19018936 4.375 204.3125 C3.85115723 204.75400391 3.32731445 205.19550781 2.78759766 205.65039062 C-6.18298471 213.18598244 -15.34958346 219.68183465 -25.625 225.3125 C-26.21667969 225.64121094 -26.80835938 225.96992187 -27.41796875 226.30859375 C-39.23093941 232.80181603 -51.11054267 236.7608895 -64.625 237.3125 C-64.04743056 230.54531139 -61.75432455 224.5770068 -59.375 218.25 C-58.71226074 216.48064087 -58.71226074 216.48064087 -58.03613281 214.67553711 C-44.93230239 180.18163056 -28.72822702 147.31568396 -9.30078125 115.92578125 C-8.78475342 115.09062988 -8.26872559 114.25547852 -7.73706055 113.39501953 C-6.77346426 111.84307739 -5.80269808 110.29555498 -4.82348633 108.75341797 C-2.28551605 104.83856493 -2.28551605 104.83856493 -1.625 100.3125 C-3.03255347 98.92236492 -3.03255347 98.92236492 -4.95703125 97.7109375 C-5.66762695 97.22560547 -6.37822266 96.74027344 -7.11035156 96.24023438 C-7.87831055 95.72783203 -8.64626953 95.21542969 -9.4375 94.6875 C-11.01375349 93.60451807 -12.58797419 92.51857156 -14.16015625 91.4296875 C-14.9298877 90.89698242 -15.69961914 90.36427734 -16.49267578 89.81542969 C-21.09295882 86.57300441 -25.38171098 83.00366516 -29.625 79.3125 C-30.13482422 78.87502441 -30.64464844 78.43754883 -31.16992188 77.98681641 C-43.84189565 67.04525922 -56.54666612 53.60061235 -61.625 37.3125 C-52.68384466 30.34003942 -43.07094037 24.65948414 -33.32275391 18.90771484 C-28.82823621 16.25005162 -24.35210695 13.56185155 -19.875 10.875 C-19.06619385 10.3912793 -18.2573877 9.90755859 -17.42407227 9.40917969 C-13.00077828 6.75953038 -8.62440867 4.0595346 -4.30615234 1.24121094 C-2.625 0.3125 -2.625 0.3125 0 0 Z " fill="#38474E" transform="translate(261.625,295.6875)"/>
<path d="M0 0 C10.63214857 7.36432643 18.14533135 17.65002605 21.5625 30.1875 C24.13849978 44.84679774 21.9906561 58.52491093 14.1328125 71.1171875 C7.19583142 80.9515422 -2.35415409 87.34395871 -13.8125 90.875 C-15.05 91.266875 -16.2875 91.65875 -17.5625 92.0625 C-32.02168687 95.44293858 -44.41943858 90.96741467 -56.8125 83.875 C-67.74664135 76.50302665 -74.42388536 64.05978743 -77.375 51.4765625 C-79.75749351 37.30923503 -75.84946186 23.63509786 -67.8125 11.875 C-62.44817813 5.35750337 -56.34260712 0.64005356 -48.8125 -3.125 C-48.00554688 -3.53878906 -47.19859375 -3.95257812 -46.3671875 -4.37890625 C-31.75518011 -10.79120919 -13.40973545 -7.85639625 0 0 Z " fill="#C4C8E7" transform="translate(810.8125,574.125)"/>
</svg>
